<svg
    width="1024"
    height="1024"
    viewBox="0 0 1024 1024"
    fill="none"
    xmlns="http://www.w3.org/2000/svg"
    {...props}
  >
    <path
      d="
        M165.462 140.269
      c0 4.318-.8 8.45-2.26 12.256
      l74.092 26.967
      a8.25 8.25 0 0 1 5.157-1.802
      a8.29 8.29 0 0 1 8.288 8.288
      a8.29 8.29 0 0 1-8.288 8.287
      c-4.223 0-7.712-3.164-8.223-7.25
      l-74.86-27.247
      a34.454 34.454 0 0 1-11.046 10.173
      l23.288 60.667
      c.5-.033 1.004-.05 1.511-.05
      c12.248 0 22.187 9.94 22.187 22.187
      c0 12.247-9.94 22.187-22.187 22.187
      c-12.247 0-22.187-9.94-22.187-22.187
      c0-7.965 4.205-14.955 10.513-18.868
      l-23.073-60.109
      c-2.31.492-4.706.751-7.162.751
      c-3.834 0-7.522-.631-10.965-1.795
      l-8.723 26.848
      a10.96 10.96 0 0 1 3.47 8.012
      c0 6.067-4.924 10.99-10.99 10.99
      c-6.067 0-10.99-4.923-10.99-10.99
      s4.923-10.99 10.99-10.99
      c.539 0 1.07.039 1.588.114
      l8.667-26.677
      a34.45 34.45 0 0 1-12.393-12.1
      l-71.25 28.788
      c-.886 7.638-7.382 13.573-15.257 13.573
      c-8.478 0-15.359-6.88-15.359-15.359
      c0-8.478 6.88-15.36 15.36-15.36
      c5.129 0 9.674 2.52 12.464 6.387
      l69.947-28.26
      c-.53-2.393-.81-4.88-.81-7.431
      a34.087 34.087 0 0 1 3.605-15.303
      l-26.58-20.03
      a11.218 11.218 0 0 1-5.535 1.45
      c-6.224 0-11.275-5.05-11.275-11.274
      c0-6.224 5.051-11.276 11.275-11.276
      s11.275 5.052 11.275 11.276
      c0 1.362-.242 2.668-.686 3.878
      l25.795 19.437
      c5.284-6.373 12.832-10.802 21.407-12.05
      V42.789
      c-9.575-2.248-16.711-10.85-16.711-21.108
      C109.53 9.713 119.244 0 131.212 0
      c11.968 0 21.681 9.713 21.681 21.681
      c0 9.783-6.49 18.06-15.397 20.755
      v64.159
      c12.214 2.267 22.158 11.023 26.118 22.553
      l24.975-8.115
      a19.983 19.983 0 0 1-.199-2.82
      c0-10.951 8.89-19.84 19.841-19.84
      c10.952 0 19.841 8.889 19.841 19.84
      c0 10.953-8.889 19.842-19.84 19.842
      "
      fill="#13a0a8"
      stroke="#a207fc"
      strokeWidth="0"
      strokeLinecap="butt"
      strokeLinejoin="miter"
      style={{ opacity: 1 }}
      transform="matrix(3.72456 0 0 3.72456 40.77 0)"
      vectorEffect="non-scaling-stroke"
    />
  </svg>